<svg id="svg" version="1.1" width="256" height="256" xmlns="http://www.w3.org/2000/svg" xmlns:xlink="http://www.w3.org/1999/xlink" ><g id="svgg" transform="translate(128, 128) scale(1.3) translate(-128, -128) translate(-75.91, -70.49)"><path id="path0" d="M163.542 165.104 C 162.969 165.677,162.500 168.490,162.500 171.354 C 162.500 176.265,162.188 176.563,157.031 176.563 C 151.693 176.563,151.563 176.711,151.563 182.813 C 151.563 188.914,151.693 189.063,157.031 189.063 C 162.240 189.063,162.500 189.323,162.500 194.531 C 162.500 199.740,162.240 200.000,157.031 200.000 L 151.563 200.000 151.563 211.719 L 151.563 223.438 156.937 223.438 C 162.020 223.438,162.338 223.756,162.796 229.297 L 163.281 235.156 174.609 235.615 L 185.938 236.074 185.938 229.756 C 185.938 223.577,185.817 223.438,180.469 223.438 C 175.279 223.438,175.000 223.164,175.000 218.063 C 175.000 212.980,174.682 212.662,169.141 212.204 C 163.599 211.745,163.255 211.401,162.796 205.859 L 162.311 200.000 168.656 200.000 C 174.865 200.000,175.000 199.883,175.000 194.531 C 175.000 189.323,175.260 189.063,180.469 189.063 C 185.807 189.063,185.938 188.914,185.938 182.813 C 185.938 176.711,185.807 176.563,180.469 176.563 C 175.130 176.563,175.000 176.414,175.000 170.313 C 175.000 164.212,167.736 160.910,163.542 165.104 M201.563 170.313 L 201.563 176.563 195.218 176.563 L 188.874 176.563 189.359 182.422 C 189.817 187.963,190.162 188.308,195.703 188.766 C 205.118 189.545,204.754 200.000,195.313 200.000 L 189.063 200.000 189.063 211.719 L 189.063 223.438 195.313 223.438 L 201.563 223.438 201.563 229.732 L 201.563 236.026 223.043 235.591 L 244.524 235.156 244.017 229.297 L 243.511 223.438 249.880 223.438 L 256.250 223.438 256.250 211.719 L 256.250 200.000 244.531 200.000 L 232.813 200.000 232.813 194.531 L 232.813 189.063 244.531 189.063 L 256.250 189.063 256.250 182.813 L 256.250 176.563 244.531 176.563 L 232.813 176.563 232.813 182.813 C 232.813 188.914,232.682 189.063,227.344 189.063 C 222.005 189.063,221.875 188.914,221.875 182.813 C 221.875 176.910,221.615 176.563,217.188 176.563 C 212.760 176.563,212.500 176.215,212.500 170.313 C 212.500 164.211,212.370 164.063,207.031 164.063 C 201.693 164.063,201.563 164.211,201.563 170.313 M221.875 200.781 L 221.875 212.500 232.813 212.500 L 243.750 212.500 243.750 217.969 L 243.750 223.438 228.125 223.438 L 212.500 223.438 212.500 217.969 C 212.500 212.760,212.240 212.500,207.031 212.500 C 201.693 212.500,201.563 212.351,201.563 206.250 C 201.563 200.149,201.693 200.000,207.031 200.000 C 212.240 200.000,212.500 199.740,212.500 194.531 C 212.500 189.497,212.872 189.063,217.188 189.063 L 221.875 189.063 221.875 200.781 " stroke="none" fill="#000000" fill-rule="evenodd"></path></g></svg>